<svg width="80" height="80" viewBox="0 0 80 80" fill="none" xmlns="http://www.w3.org/2000/svg">
  <path d="M29.0542 17.2712C35.9711 13.9402 44.0285 13.9402 50.9455 17.2712C57.8624 20.6022 62.8861 26.9018 64.5944 34.3865C66.3028 41.8713 64.5099 49.7266 59.7232 55.7289C54.9365 61.7312 47.677 65.2272 39.9998 65.2272C32.3226 65.2272 25.0631 61.7312 20.2765 55.7289C15.4898 49.7266 13.6968 41.8713 15.4052 34.3865C17.1135 26.9018 22.1372 20.6022 29.0542 17.2712Z" fill="#C2CCDE" fill-opacity="0.25" />
  <path d="M32.9998 34.0001C32.9998 35.1046 32.1044 36.0001 30.9998 36.0001C29.8952 36.0001 28.9998 35.1046 28.9998 34.0001C28.9998 32.8955 29.8952 32.0001 30.9998 32.0001C32.1044 32.0001 32.9998 32.8955 32.9998 34.0001Z" fill="#C2CCDE" fill-opacity="0.25" />
  <path d="M50.9998 34.0001C50.9998 35.1046 50.1044 36.0001 48.9998 36.0001C47.8952 36.0001 46.9998 35.1046 46.9998 34.0001C46.9998 32.8955 47.8952 32.0001 48.9998 32.0001C50.1044 32.0001 50.9998 32.8955 50.9998 34.0001Z" fill="#C2CCDE" fill-opacity="0.25" />
  <path d="M50.6064 50.6067C47.7934 53.4197 43.9781 55.0001 39.9998 55.0001C36.0216 55.0001 32.2063 53.4197 29.3932 50.6067M15.4052 34.3865C17.1135 26.9018 22.1372 20.6022 29.0542 17.2712C35.9711 13.9402 44.0285 13.9402 50.9455 17.2712C57.8624 20.6022 62.8861 26.9018 64.5944 34.3865C66.3028 41.8713 64.5099 49.7266 59.7232 55.7289C54.9365 61.7312 47.677 65.2272 39.9998 65.2272C32.3226 65.2272 25.0631 61.7312 20.2765 55.7289C15.4898 49.7266 13.6968 41.8713 15.4052 34.3865ZM32.9998 34.0001C32.9998 35.1046 32.1044 36.0001 30.9998 36.0001C29.8952 36.0001 28.9998 35.1046 28.9998 34.0001C28.9998 32.8955 29.8952 32.0001 30.9998 32.0001C32.1044 32.0001 32.9998 32.8955 32.9998 34.0001ZM50.9998 34.0001C50.9998 35.1046 50.1044 36.0001 48.9998 36.0001C47.8952 36.0001 46.9998 35.1046 46.9998 34.0001C46.9998 32.8955 47.8952 32.0001 48.9998 32.0001C50.1044 32.0001 50.9998 32.8955 50.9998 34.0001Z" stroke="#C2CCDE" stroke-linecap="round" stroke-linejoin="round" />
</svg>