<svg width="80" height="80" viewBox="0 0 80 80" fill="none" xmlns="http://www.w3.org/2000/svg">
  <path d="M29.0542 17.2712C35.9711 13.9402 44.0285 13.9402 50.9455 17.2712C57.8624 20.6022 62.8861 26.9018 64.5944 34.3865C66.3028 41.8713 64.5099 49.7266 59.7232 55.7289C54.9365 61.7312 47.677 65.2272 39.9998 65.2272C32.3226 65.2272 25.0631 61.7312 20.2765 55.7289C15.4898 49.7266 13.6968 41.8713 15.4052 34.3865C17.1135 26.9018 22.1372 20.6022 29.0542 17.2712Z" fill="#F2C94C" />
  <path d="M50.6066 50.6066C47.7936 53.4196 43.9782 55 40 55C36.0218 55 32.2064 53.4196 29.3934 50.6066" stroke="#333333" stroke-width="4" stroke-linecap="round" stroke-linejoin="round" />
  <circle cx="31" cy="34" r="2" stroke="#4F4F4F" stroke-width="4" stroke-linecap="round" stroke-linejoin="round" />
  <circle cx="49" cy="34" r="2" stroke="#4F4F4F" stroke-width="4" stroke-linecap="round" stroke-linejoin="round" />
</svg>