<svg width="80" height="80" viewBox="0 0 80 80" fill="none" xmlns="http://www.w3.org/2000/svg">
  <path d="M29.0544 17.2712C35.9714 13.9402 44.0288 13.9402 50.9457 17.2712C57.8627 20.6022 62.8863 26.9018 64.5947 34.3865C66.303 41.8713 64.5101 49.7266 59.7234 55.7289C54.9367 61.7312 47.6773 65.2272 40.0001 65.2272C32.3228 65.2272 25.0634 61.7312 20.2767 55.7289C15.49 49.7266 13.6971 41.8713 15.4054 34.3865C17.1138 26.9018 22.1375 20.6022 29.0544 17.2712Z" fill="#F2C94C" />
  <path d="M50.6066 50.6066C47.7936 53.4196 43.9782 55 40 55C36.0218 55 32.2064 53.4196 29.3934 50.6066" stroke="#333333" stroke-width="4" stroke-linecap="round" stroke-linejoin="round" />
  <path d="M34.9497 37.3431C34.2997 36.6003 33.5281 36.011 32.6788 35.609C31.8295 35.2069 30.9193 35 30 35C29.0807 35 28.1705 35.2069 27.3212 35.609C26.4719 36.011 25.7003 36.6003 25.0503 37.3431" stroke="#4F4F4F" stroke-width="4" stroke-linecap="round" stroke-linejoin="round" />
  <path d="M54.9497 37.3431C54.2997 36.6003 53.5281 36.011 52.6788 35.609C51.8295 35.2069 50.9193 35 50 35C49.0807 35 48.1705 35.2069 47.3212 35.609C46.4719 36.011 45.7003 36.6003 45.0503 37.3431" stroke="#4F4F4F" stroke-width="4" stroke-linecap="round" stroke-linejoin="round" />
</svg>