<svg width="80" height="80" viewBox="0 0 80 80" fill="none" xmlns="http://www.w3.org/2000/svg">
  <path d="M29.0544 17.2712C35.9714 13.9402 44.0288 13.9402 50.9457 17.2712C57.8627 20.6022 62.8863 26.9018 64.5947 34.3865C66.303 41.8713 64.5101 49.7266 59.7234 55.7289C54.9367 61.7312 47.6773 65.2272 40.0001 65.2272C32.3228 65.2272 25.0634 61.7312 20.2767 55.7289C15.49 49.7266 13.6971 41.8713 15.4054 34.3865C17.1138 26.9018 22.1375 20.6022 29.0544 17.2712Z" fill="#C2CCDE" fill-opacity="0.25" />
  <path d="M33.0001 36.0001C33.0001 37.1046 32.1046 38.0001 31.0001 38.0001C29.8955 38.0001 29.0001 37.1046 29.0001 36.0001C29.0001 34.8955 29.8955 34.0001 31.0001 34.0001C32.1046 34.0001 33.0001 34.8955 33.0001 36.0001Z" fill="#C2CCDE" fill-opacity="0.25" />
  <path d="M51.0001 36.0001C51.0001 37.1046 50.1046 38.0001 49.0001 38.0001C47.8955 38.0001 47.0001 37.1046 47.0001 36.0001C47.0001 34.8955 47.8955 34.0001 49.0001 34.0001C50.1046 34.0001 51.0001 34.8955 51.0001 36.0001Z" fill="#C2CCDE" fill-opacity="0.25" />
  <path d="M49.0001 52.0001H31.0001M15.4054 34.3865C17.1138 26.9018 22.1375 20.6022 29.0544 17.2712C35.9714 13.9402 44.0288 13.9402 50.9457 17.2712C57.8627 20.6022 62.8863 26.9018 64.5947 34.3865C66.303 41.8713 64.5101 49.7266 59.7234 55.7289C54.9367 61.7312 47.6773 65.2272 40.0001 65.2272C32.3228 65.2272 25.0634 61.7312 20.2767 55.7289C15.49 49.7266 13.6971 41.8713 15.4054 34.3865ZM33.0001 36.0001C33.0001 37.1046 32.1046 38.0001 31.0001 38.0001C29.8955 38.0001 29.0001 37.1046 29.0001 36.0001C29.0001 34.8955 29.8955 34.0001 31.0001 34.0001C32.1046 34.0001 33.0001 34.8955 33.0001 36.0001ZM51.0001 36.0001C51.0001 37.1046 50.1046 38.0001 49.0001 38.0001C47.8955 38.0001 47.0001 37.1046 47.0001 36.0001C47.0001 34.8955 47.8955 34.0001 49.0001 34.0001C50.1046 34.0001 51.0001 34.8955 51.0001 36.0001Z" stroke="#C2CCDE" stroke-linecap="round" stroke-linejoin="round" />
</svg>