<svg width="80" height="80" viewBox="0 0 80 80" fill="none" xmlns="http://www.w3.org/2000/svg">
  <path d="M29.0544 17.2712C35.9714 13.9402 44.0288 13.9402 50.9457 17.2712C57.8627 20.6022 62.8863 26.9018 64.5947 34.3865C66.303 41.8713 64.5101 49.7266 59.7234 55.7289C54.9367 61.7312 47.6773 65.2272 40.0001 65.2272C32.3228 65.2272 25.0634 61.7312 20.2767 55.7289C15.49 49.7266 13.6971 41.8713 15.4054 34.3865C17.1138 26.9018 22.1375 20.6022 29.0544 17.2712Z" fill="#C2CCDE" fill-opacity="0.25" />
  <path d="M50.6067 50.6067C47.7936 53.4197 43.9783 55.0001 40.0001 55.0001C36.0218 55.0001 32.2065 53.4197 29.3935 50.6067M34.9498 37.3432C34.2998 36.6004 33.5281 36.0111 32.6788 35.609C31.8296 35.207 30.9193 35.0001 30.0001 35.0001C29.0808 35.0001 28.1706 35.207 27.3213 35.609C26.472 36.0111 25.7003 36.6004 25.0503 37.3432M54.9498 37.3432C54.2998 36.6004 53.5281 36.0111 52.6788 35.609C51.8296 35.207 50.9193 35.0001 50.0001 35.0001C49.0808 35.0001 48.1706 35.207 47.3213 35.609C46.472 36.0111 45.7003 36.6004 45.0503 37.3432M15.4054 34.3865C17.1138 26.9018 22.1375 20.6022 29.0544 17.2712C35.9714 13.9402 44.0288 13.9402 50.9457 17.2712C57.8627 20.6022 62.8863 26.9018 64.5947 34.3865C66.303 41.8713 64.5101 49.7266 59.7234 55.7289C54.9367 61.7312 47.6773 65.2272 40.0001 65.2272C32.3228 65.2272 25.0634 61.7312 20.2767 55.7289C15.49 49.7266 13.6971 41.8713 15.4054 34.3865Z" stroke="#C2CCDE" stroke-linecap="round" stroke-linejoin="round" />
</svg>