<svg xmlns="http://www.w3.org/2000/svg" version="1.1" xmlns:xlink="http://www.w3.org/1999/xlink" xmlns:svgjs="http://svgjs.dev/svgjs" width="1000" height="1000" viewBox="0 0 1000 1000"><rect width="1000" height="1000" fill="#ffffff"></rect><g transform="matrix(0.7,0,0,0.7,149.57576710681616,391.15162265876194)"><svg viewBox="0 0 396 123" data-background-color="#ffffff" preserveAspectRatio="xMidYMid meet" height="310" width="1000" xmlns="http://www.w3.org/2000/svg" xmlns:xlink="http://www.w3.org/1999/xlink"><g id="tight-bounds" transform="matrix(1,0,0,1,0.2399946081440021,0.1974673408860781)"><svg viewBox="0 0 395.52 122.60506531822783" height="122.60506531822783" width="395.52"><g><svg viewBox="0 0 661.6227152256957 205.09277967301193" height="122.60506531822783" width="395.52"><g><rect width="7.218218044133163" height="149.14489404585888" x="239.98863842728724" y="27.973942813576528" fill="#000000" opacity="1" stroke-width="0" stroke="transparent" fill-opacity="1" class="rect-o-0" data-fill-palette-color="secondary" rx="1%" id="o-0" data-palette-color="#5d9943"></rect></g><g transform="matrix(1,0,0,1,266.1027152256957,28.344950012695577)"><svg viewBox="0 0 395.52000000000004 148.40287964762078" height="148.40287964762078" width="395.52000000000004"><g><svg viewBox="0 0 395.52000000000004 148.40287964762078" height="148.40287964762078" width="395.52000000000004"><g><svg viewBox="0 0 395.52000000000004 80.04142206016408" height="80.04142206016408" width="395.52000000000004"><g transform="matrix(1,0,0,1,0,0)"><svg width="395.52000000000004" viewBox="1.8799999952316284 -37.380001068115234 187.45999145507812 37.94000244140625" height="80.04142206016408" data-palette-color="#5d9943"><path d="M6.73-4.74Q4.35-7.2 3.11-10.56 1.88-13.92 1.88-17.35 1.88-20.78 2.56-23.41 3.25-26.05 4.46-28.22 5.66-30.4 7.36-32.1 9.06-33.81 11.08-34.99L11.08-34.99Q15.21-37.38 19.92-37.38 24.63-37.38 28.1-36 31.57-34.62 33.94-32.2L33.94-32.2Q38.75-27.29 38.75-19.31L38.75-19.31Q38.75-10.42 33.35-4.81L33.35-4.81Q30.86-2.22 27.55-0.83 24.24 0.56 20.15 0.56 16.06 0.56 12.59-0.85 9.11-2.27 6.73-4.74ZM10.3-29.93Q8.52-27.86 7.56-25.1 6.59-22.34 6.59-19.7 6.59-17.07 6.98-14.97 7.37-12.87 8.14-11 8.91-9.13 10.07-7.54 11.23-5.96 12.77-4.81L12.77-4.81Q16.04-2.37 20.48-2.37L20.48-2.37Q26.56-2.37 30.37-6.49L30.37-6.49Q34.11-10.55 34.11-17.07L34.11-17.07Q34.11-24.24 30.86-29L30.86-29Q27.15-34.45 20.02-34.45L20.02-34.45Q14.14-34.45 10.3-29.93L10.3-29.93ZM69.5-31.23L69.5-31.23Q70.16-29.54 70.16-27.39 70.16-25.24 69.49-23.49 68.82-21.73 67.55-20.46L67.55-20.46Q65.13-18.04 60.45-17.07L60.45-17.07 60.89-17.87 70.53-3.22 72.24-2.47 75.68-2.08 75.68 0 67.31 0 56.32-17.55 58.37-16.67 51.83-16.67 51.83-2.64 55.49-2.08 55.49 0 43.53 0 43.53-2.08 47.31-2.64 47.31-34.18 43.53-34.74 43.53-36.82 55.56-36.82Q67.26-36.82 69.5-31.23ZM55.81-33.86L51.83-33.86 51.83-19.31 55.44-19.31Q63.35-19.31 65.01-23.93L65.01-23.93Q65.52-25.32 65.52-26.94 65.52-28.56 65.06-29.86 64.6-31.15 63.5-32.03L63.5-32.03Q61.23-33.86 55.81-33.86L55.81-33.86ZM77.46-34.74L77.46-36.82 89.42-36.82 89.42-34.74 85.74-34.18 85.74-2.64 89.42-2.08 89.42 0 77.46 0 77.46-2.08 81.22-2.64 81.22-34.18 77.46-34.74ZM116.23-13.94L116.23-16.58 130.66-16.58 130.66-13.94 129.29-13.94Q128.56-13.94 128.18-13.71 127.8-13.48 127.8-12.84L127.8-12.84 127.8-2.29Q126.04-2.29 123.89-1.56L123.89-1.56 120.77-0.54Q117.28 0.56 113.24 0.56 109.2 0.56 105.6-0.89 101.99-2.34 99.46-4.86 96.92-7.37 95.54-10.77 94.16-14.16 94.16-17.59 94.16-21.02 94.88-23.63 95.6-26.25 96.89-28.39 98.19-30.54 99.98-32.21 101.77-33.89 103.92-35.03L103.92-35.03Q108.34-37.38 113.54-37.38L113.54-37.38Q121.57-37.38 126.29-34.89L126.29-34.89 125.72-28.86 124.11-28.86Q124.11-31.1 121.33-32.69L121.33-32.69Q118.25-34.45 113.42-34.45L113.42-34.45Q107.15-34.45 103-29.93L103-29.93Q98.94-25.54 98.94-19.26L98.94-19.26Q98.94-12.38 102.75-7.54L102.75-7.54Q106.85-2.37 113.81-2.37L113.81-2.37Q121.48-2.37 122.84-5.66L122.84-5.66Q123.26-6.69 123.26-7.89L123.26-7.89 123.26-12.84Q123.26-13.5 122.88-13.72 122.5-13.94 121.87-13.94L121.87-13.94 116.23-13.94ZM135.78-34.74L135.78-36.82 147.74-36.82 147.74-34.74 144.06-34.18 144.06-2.64 147.74-2.08 147.74 0 135.78 0 135.78-2.08 139.54-2.64 139.54-34.18 135.78-34.74ZM182.63 0L159-29.74 159-2.64 162.71-2.08 162.71 0 152.4 0 152.4-2.08 156.19-2.64 156.19-34.18 152.4-34.74 152.4-36.82 159.14-36.82 182.8-7.08 182.8-34.18 179.11-34.74 179.11-36.82 189.34-36.82 189.34-34.74 185.66-34.18 185.66 0 182.63 0Z" opacity="1" transform="matrix(1,0,0,1,0,0)" fill="#000000" class="undefined-text-0" data-fill-palette-color="primary" id="text-0"></path></svg></g></svg></g><g transform="matrix(1,0,0,1,0,98.93728081443938)"><svg viewBox="0 0 395.52000000000004 49.4655988331814" height="49.4655988331814" width="395.52000000000004"><g transform="matrix(1,0,0,1,0,0)"><svg width="395.52000000000004" viewBox="1.7599999904632568 -32.56999969482422 264.30999755859375 33.060001373291016" height="49.4655988331814" data-palette-color="#5d9943"><path d="M22.31-8.59L22.31-8.59Q22.31-11.72 20.21-13.94 18.12-16.16 13.62-16.16L13.62-16.16Q12.55-16.16 10.11-15.97L10.11-15.97Q9.91-15.38 9.91-14.36L9.91-14.36 9.91-7.23Q9.91-3.52 10.69-2.88L10.69-2.88Q11.43-2.2 13.33-2.2L13.33-2.2Q14.55-2.2 15.75-2.39 16.94-2.59 18.6-3.15 20.26-3.71 21.29-5.1 22.31-6.49 22.31-8.59ZM5.66-6.98L5.66-6.98 5.66-25.44Q5.66-28.32 5.32-29.64L5.32-29.64Q5.18-30.03 3.88-30.37 2.59-30.71 1.95-30.71L1.95-30.71Q1.76-30.71 1.76-31.3L1.76-31.3Q1.76-31.93 1.95-32.13L1.95-32.13Q4.49-32.03 7.76-32.03L7.76-32.03Q10.25-32.03 11.84-32.06 13.43-32.08 14.65-32.08L14.65-32.08Q15.92-32.08 17.24-31.86 18.55-31.64 19.95-31.05 21.34-30.47 22.41-29.59 23.49-28.71 24.17-27.27 24.85-25.83 24.85-24.07 24.85-22.31 23.73-20.8 22.61-19.29 21.66-18.7 20.7-18.12 20.02-17.87L20.02-17.87Q19.63-17.72 19.78-17.58L19.78-17.58Q21.68-17.24 24.32-14.82 26.95-12.4 26.95-9.13L26.95-9.13Q26.95-4.93 23.56-2.47 20.17 0 14.55 0L14.55 0 7.86 0 1.95 0.15Q1.81 0 1.81-0.63 1.81-1.27 1.95-1.27L1.95-1.27Q2.59-1.27 3.83-1.61 5.08-1.95 5.32-2.39L5.32-2.39Q5.66-2.98 5.66-6.98ZM15.87-18.36L15.87-18.36Q17.87-18.55 19.21-19.75 20.56-20.95 20.56-22.95L20.56-22.95Q20.56-26.32 18.87-28.2 17.19-30.08 13.87-30.08L13.87-30.08Q11.62-30.08 10.4-29.74L10.4-29.74Q10.11-29.69 10.11-29.3L10.11-29.3 9.91-24.37 9.91-18.55Q9.91-18.21 13.13-18.21L13.13-18.21Q14.7-18.21 15.87-18.36ZM64.97-30.52L64.97-30.52Q60.33-30.52 57.65-26.46 54.96-22.41 54.96-17.09L54.96-17.09Q54.96-13.18 56.23-9.72 57.5-6.25 60.19-3.93 62.87-1.61 66.49-1.61L66.49-1.61Q69.61-1.61 71.96-3.64 74.3-5.66 75.4-8.67 76.5-11.67 76.5-15.09L76.5-15.09Q76.5-18.99 75.23-22.44 73.96-25.88 71.27-28.2 68.59-30.52 64.97-30.52ZM54.69-4.35Q50.13-9.18 50.13-16.02 50.13-22.85 54.69-27.71 59.26-32.57 65.71-32.57 72.15-32.57 76.74-27.71 81.33-22.85 81.33-16.02 81.33-9.18 76.74-4.35 72.15 0.49 65.71 0.49 59.26 0.49 54.69-4.35ZM129.51-10.4L129.51-25.59Q129.51-28.56 129.16-29.88L129.16-29.88Q129.02-30.27 127.48-30.64 125.94-31.01 125.31-31.01L125.31-31.01Q125.11-31.01 125.11-31.57 125.11-32.13 125.31-32.32L125.31-32.32Q125.94-32.28 127.85-32.15 129.75-32.03 131.07-32.03L131.07-32.03Q132.34-32.03 134.27-32.18 136.2-32.32 136.54-32.32L136.54-32.32Q136.63-32.03 136.63-31.59L136.63-31.59Q136.63-31.01 136.44-31.01L136.44-31.01Q135.95-31.01 134.32-30.62 132.68-30.22 132.58-29.88L132.58-29.88Q132.19-28.37 132.19-25.34L132.19-25.34 132.19-6.79Q132.19-3.76 132.34 0.05L132.34 0.05Q132.14 0.24 131.41 0.24L131.41 0.24Q130.58 0.24 129.8-0.88L129.8-0.88 110.85-27.73 110.85-6.88Q110.85-3.66 111.2-2.34L111.2-2.34Q111.29-2 112.83-1.64 114.37-1.27 114.86-1.27L114.86-1.27Q115-1.27 115.03-0.68 115.05-0.1 114.96 0.15L114.96 0.15Q110.07-0.1 109.34-0.1L109.34-0.1 103.72 0.15Q103.58 0 103.58-0.59L103.58-0.59Q103.58-1.27 103.72-1.27L103.72-1.27Q104.41-1.27 105.95-1.64 107.48-2 107.63-2.44L107.63-2.44Q108.12-3.71 108.12-7.03L108.12-7.03 108.12-26.22Q108.12-28.61 107.78-29.88L107.78-29.88Q107.63-30.27 106.12-30.59 104.6-30.91 103.92-30.91L103.92-30.91Q103.72-30.91 103.72-31.52 103.72-32.13 103.92-32.32L103.92-32.32Q107.73-32.23 108.9-32.23L108.9-32.23Q111.44-32.23 112.81-32.32L112.81-32.32Q114.61-29 129.36-8.4L129.36-8.4Q129.51-9.23 129.51-10.4L129.51-10.4ZM159.86-23.93L159.86-23.93Q159.86-27.69 162.74-30.1 165.62-32.52 169.43-32.52L169.43-32.52Q170.5-32.52 171.46-32.4 172.41-32.28 173.02-32.13 173.63-31.98 174.78-31.67 175.92-31.35 176.8-31.15L176.8-31.15Q177.39-28.56 177.39-24.17L177.39-24.17Q177.39-23.83 176.9-23.83L176.9-23.83Q175.73-23.83 175.63-24.32L175.63-24.32Q175.39-26.46 173.56-28.49 171.72-30.52 169.09-30.52L169.09-30.52Q166.16-30.52 164.96-29.05 163.77-27.59 163.77-25.44L163.77-25.44Q163.77-24.51 164.11-23.66 164.45-22.8 164.79-22.24 165.13-21.68 166.04-20.95 166.94-20.21 167.35-19.92 167.77-19.63 169.01-18.85 170.26-18.07 170.6-17.87L170.6-17.87Q170.85-17.72 172.31-16.82 173.78-15.92 174.31-15.55 174.85-15.19 176-14.23 177.14-13.28 177.66-12.55 178.17-11.82 178.63-10.72 179.1-9.62 179.1-8.45L179.1-8.45Q179.1-4.54 176.05-2.03 172.99 0.49 168.89 0.49L168.89 0.49Q167.72 0.49 166.4 0.32 165.08 0.15 164.2-0.02 163.33-0.2 161.98-0.51 160.64-0.83 160.1-0.93L160.1-0.93Q158.88-6.93 158.88-8.69L158.88-8.69Q158.88-8.98 159.66-8.98L159.66-8.98Q160.54-8.98 160.88-8.54L160.88-8.54Q162.54-1.51 168.99-1.51L168.99-1.51Q171.43-1.51 173.14-2.98 174.85-4.44 174.85-7.13L174.85-7.13Q174.85-8.11 174.56-8.94 174.26-9.77 173.95-10.3 173.63-10.84 172.82-11.45 172.02-12.06 171.58-12.35 171.14-12.65 169.97-13.28 168.79-13.92 168.36-14.16L168.36-14.16Q166.94-14.99 166.38-15.33 165.82-15.67 164.52-16.53 163.23-17.38 162.64-18.04 162.06-18.7 161.28-19.65 160.49-20.61 160.18-21.68 159.86-22.75 159.86-23.93ZM217.31-32.37L217.75-32.23 227.52-6.45Q228.4-4.15 228.93-2.93L228.93-2.93Q229.23-2.2 230.45-1.73 231.67-1.27 232.25-1.27L232.25-1.27Q232.45-1.27 232.45-0.34L232.45-0.34Q232.45-0.15 232.35 0.15L232.35 0.15Q227.47-0.1 226.98-0.1L226.98-0.1Q226.93-0.1 221.32 0.15L221.32 0.15Q221.12-0.05 221.15-0.66 221.17-1.27 221.37-1.27L221.37-1.27Q221.95-1.27 222.83-1.51 223.71-1.76 223.86-2.15L223.86-2.15Q223.95-2.54 223.95-2.93L223.95-2.93Q223.95-3.56 223.78-4.42 223.61-5.27 223.46-5.76L223.46-5.76 223.27-6.3 221.27-11.82Q221.12-12.01 220.97-12.01L220.97-12.01Q219.07-12.16 217.26-12.16L217.26-12.16Q214.72-12.16 211.06-11.91L211.06-11.91 210.82-11.77 208.72-6.4Q207.89-3.96 207.89-3.03L207.89-3.03Q207.89-2.34 208.28-2.05L208.28-2.05Q208.72-1.71 209.7-1.49 210.67-1.27 211.11-1.27L211.11-1.27Q211.26-1.27 211.28-0.68 211.31-0.1 211.21 0.15L211.21 0.15Q206.33-0.1 206.18-0.1L206.18-0.1Q205.2-0.1 204.47-0.05 203.74 0 202.83 0.05 201.93 0.1 201.1 0.15L201.1 0.15Q200.91-0.05 200.91-0.59L200.91-0.59Q200.91-1.27 201.1-1.27L201.1-1.27Q201.69-1.27 202.62-1.51 203.54-1.76 203.88-2.2L203.88-2.2Q204.91-3.52 206.18-6.79L206.18-6.79 214.68-28.61Q214.77-28.86 214.94-29.39 215.12-29.93 215.21-30.2 215.31-30.47 215.51-30.88 215.7-31.3 215.85-31.49 215.99-31.69 216.21-31.93 216.43-32.18 216.7-32.28 216.97-32.37 217.31-32.37L217.31-32.37ZM212.09-14.6L212.09-14.6Q214.63-14.5 215.55-14.5L215.55-14.5Q217.7-14.5 220-14.65L220-14.65 220.14-14.89 216.19-25.68 211.99-14.79Q211.99-14.6 212.09-14.6ZM258.07-6.59L258.07-25.54Q258.07-28.56 257.72-29.88L257.72-29.88Q257.58-30.27 256.33-30.59 255.09-30.91 254.45-30.91L254.45-30.91Q254.26-30.91 254.26-31.54L254.26-31.54Q254.26-32.13 254.45-32.32L254.45-32.32Q260.07-32.08 260.31-32.08L260.31-32.08Q261.09-32.08 265.98-32.32L265.98-32.32Q266.07-32.03 266.07-31.59L266.07-31.59Q266.07-30.91 265.88-30.91L265.88-30.91Q265.39-30.91 264.12-30.57 262.85-30.22 262.75-29.88L262.75-29.88Q262.31-28.17 262.31-25.34L262.31-25.34 262.31-6.79Q262.31-3.96 262.75-2.25L262.75-2.25Q262.85-1.9 264.12-1.59 265.39-1.27 265.88-1.27L265.88-1.27Q266.07-1.27 266.07-0.54L266.07-0.54Q266.07-0.15 265.98 0.15L265.98 0.15Q261.09-0.1 260.31-0.1L260.31-0.1Q260.07-0.1 254.45 0.15L254.45 0.15Q254.26-0.05 254.26-0.59L254.26-0.59Q254.26-1.27 254.45-1.27L254.45-1.27Q255.09-1.27 256.33-1.56 257.58-1.86 257.72-2.25L257.72-2.25Q258.07-3.56 258.07-6.59L258.07-6.59Z" opacity="1" transform="matrix(1,0,0,1,0,0)" fill="#000000" class="undefined-text-1" data-fill-palette-color="secondary" id="text-1"></path></svg></g></svg></g></svg></g></svg></g><g><svg viewBox="0 0 221.09277967301193 205.09277967301193" height="205.09277967301193" width="221.09277967301193"><g><svg xmlns="http://www.w3.org/2000/svg" xmlns:xlink="http://www.w3.org/1999/xlink" version="1.1" x="8" y="0" viewBox="5 5 90 90" enable-background="new 0 0 100 100" xml:space="preserve" height="205.09277967301193" width="205.09277967301193" class="icon-icon-0" data-fill-palette-color="accent" id="icon-0"><path fill="#000000" d="M95 52c0-12.871-5.692-24.431-14.682-32.318C72.431 10.692 60.871 5 48 5 24.29 5 5 24.29 5 48c0 12.868 5.69 24.426 14.677 32.313C27.564 89.306 39.126 95 52 95c0.084 0 0.166-0.006 0.25-0.006S52.416 95 52.5 95C75.972 95 95 75.972 95 52.5c0-0.084-0.006-0.166-0.006-0.25S95 52.084 95 52zM21.828 73.371c-4.245-5.978-6.77-13.259-6.822-21.121 0.135-20.511 16.732-37.109 37.244-37.244 7.862 0.052 15.144 2.577 21.121 6.822C80.224 28.473 84.5 37.758 84.5 48c0 20.126-16.374 36.5-36.5 36.5C37.758 84.5 28.473 80.224 21.828 73.371zM6 48C6 24.841 24.841 6 48 6c9.858 0 18.926 3.422 26.1 9.13C67.637 11.242 60.076 9 52 9 28.29 9 9 28.29 9 52c0 8.074 2.241 15.633 6.127 22.095C9.421 66.923 6 57.856 6 48zM52 89c-10.08 0-19.227-4.055-25.905-10.615C32.269 82.854 39.838 85.5 48 85.5c20.678 0 37.5-16.822 37.5-37.5 0-8.162-2.646-15.731-7.115-21.905C84.945 32.773 89 41.92 89 52 89 72.402 72.402 89 52 89z" data-fill-palette-color="accent"></path></svg></g></svg></g></svg></g><defs></defs></svg><rect width="395.52" height="122.60506531822783" fill="none" stroke="none" visibility="hidden"></rect></g></svg></g></svg>